M48
;Layer_Color=9474304
;FILE_FORMAT=4:4
METRIC,LZ
;TYPE=PLATED
T01F00S00C0.3000
T02F00S00C0.4000
T03F00S00C0.5000
T05F00S00C1.0200
T06F00S00C3.0000
%
T01
X00941Y00909
X009705Y009215
X00959Y00963
X0094075Y00985
X0093025Y009875
X00928Y01001
X0089425Y009995
X00893Y009875
X00942Y01058
X00973Y0105525
X0102235Y0106635
X01007Y00971
X00997Y0097
X01132Y01
T02
X0113975Y0097025
Y0097875
Y0098725
Y0099575
Y0100425
Y0101275
Y0102125
Y0102975
X0115325
Y0102125
Y0101275
Y0100425
Y0099575
Y0098725
Y0097875
Y0097025
T03
X00928Y01042
T05
X009542Y0115
X009796Y0115
X01005
X010304
T06
X009Y0089
X011Y0088
X0089Y0111
M30
