G04*
G04 #@! TF.GenerationSoftware,Altium Limited,Altium Designer,24.5.2 (23)*
G04*
G04 Layer_Physical_Order=1*
G04 Layer_Color=255*
%FSLAX44Y44*%
%MOMM*%
G71*
G04*
G04 #@! TF.SameCoordinates,BBD7BA97-53B7-428A-B693-6A0B443125F4*
G04*
G04*
G04 #@! TF.FilePolarity,Positive*
G04*
G01*
G75*
%ADD12C,0.2000*%
%ADD15R,0.6750X0.7750*%
%ADD16R,0.5200X0.5200*%
%ADD17R,0.6000X0.8000*%
%ADD18R,0.8000X0.8000*%
%ADD19R,1.0043X0.8721*%
G04:AMPARAMS|DCode=20|XSize=1.0043mm|YSize=0.8721mm|CornerRadius=0.4361mm|HoleSize=0mm|Usage=FLASHONLY|Rotation=0.000|XOffset=0mm|YOffset=0mm|HoleType=Round|Shape=RoundedRectangle|*
%AMROUNDEDRECTD20*
21,1,1.0043,0.0000,0,0,0.0*
21,1,0.1322,0.8721,0,0,0.0*
1,1,0.8721,0.0661,0.0000*
1,1,0.8721,-0.0661,0.0000*
1,1,0.8721,-0.0661,0.0000*
1,1,0.8721,0.0661,0.0000*
%
%ADD20ROUNDEDRECTD20*%
G04:AMPARAMS|DCode=21|XSize=1.0043mm|YSize=3.1821mm|CornerRadius=0.4369mm|HoleSize=0mm|Usage=FLASHONLY|Rotation=0.000|XOffset=0mm|YOffset=0mm|HoleType=Round|Shape=RoundedRectangle|*
%AMROUNDEDRECTD21*
21,1,1.0043,2.3084,0,0,0.0*
21,1,0.1306,3.1821,0,0,0.0*
1,1,0.8737,0.0653,-1.1542*
1,1,0.8737,-0.0653,-1.1542*
1,1,0.8737,-0.0653,1.1542*
1,1,0.8737,0.0653,1.1542*
%
%ADD21ROUNDEDRECTD21*%
%ADD22R,1.0000X0.7500*%
%ADD23R,1.7000X1.1000*%
%ADD24R,1.8741X0.5421*%
G04:AMPARAMS|DCode=25|XSize=1.8741mm|YSize=0.5421mm|CornerRadius=0.2711mm|HoleSize=0mm|Usage=FLASHONLY|Rotation=0.000|XOffset=0mm|YOffset=0mm|HoleType=Round|Shape=RoundedRectangle|*
%AMROUNDEDRECTD25*
21,1,1.8741,0.0000,0,0,0.0*
21,1,1.3319,0.5421,0,0,0.0*
1,1,0.5421,0.6660,0.0000*
1,1,0.5421,-0.6660,0.0000*
1,1,0.5421,-0.6660,0.0000*
1,1,0.5421,0.6660,0.0000*
%
%ADD25ROUNDEDRECTD25*%
%ADD26R,0.5200X0.5200*%
%ADD27R,0.8000X0.9000*%
%ADD28R,0.8000X0.6000*%
%ADD29R,1.0549X1.3562*%
%ADD30R,1.4000X2.8000*%
%ADD31R,0.9000X0.8000*%
G04:AMPARAMS|DCode=37|XSize=0.9mm|YSize=1.7mm|CornerRadius=0.45mm|HoleSize=0mm|Usage=FLASHONLY|Rotation=90.000|XOffset=0mm|YOffset=0mm|HoleType=Round|Shape=RoundedRectangle|*
%AMROUNDEDRECTD37*
21,1,0.9000,0.8000,0,0,90.0*
21,1,0.0000,1.7000,0,0,90.0*
1,1,0.9000,0.4000,0.0000*
1,1,0.9000,0.4000,0.0000*
1,1,0.9000,-0.4000,0.0000*
1,1,0.9000,-0.4000,0.0000*
%
%ADD37ROUNDEDRECTD37*%
G04:AMPARAMS|DCode=38|XSize=0.9mm|YSize=2.4mm|CornerRadius=0.45mm|HoleSize=0mm|Usage=FLASHONLY|Rotation=90.000|XOffset=0mm|YOffset=0mm|HoleType=Round|Shape=RoundedRectangle|*
%AMROUNDEDRECTD38*
21,1,0.9000,1.5000,0,0,90.0*
21,1,0.0000,2.4000,0,0,90.0*
1,1,0.9000,0.7500,0.0000*
1,1,0.9000,0.7500,0.0000*
1,1,0.9000,-0.7500,0.0000*
1,1,0.9000,-0.7500,0.0000*
%
%ADD38ROUNDEDRECTD38*%
%ADD39C,0.6500*%
%ADD44C,2.0000*%
%ADD45C,0.3000*%
%ADD46C,0.5000*%
%ADD47C,1.5000*%
%ADD48C,1.0000*%
%ADD49C,2.0000*%
%ADD50C,0.4000*%
%ADD51C,1.0000*%
%ADD52C,5.0000*%
G36*
X1014068Y1196697D02*
X1028064Y1195192D01*
X1041918Y1192693D01*
X1055558Y1189212D01*
X1057146Y1188683D01*
X1056890Y1187104D01*
X1016716D01*
X1013583Y1186691D01*
X1010664Y1185482D01*
X1008157Y1183559D01*
X996441Y1171843D01*
X994518Y1169336D01*
X993309Y1166417D01*
X992896Y1163284D01*
Y1152923D01*
X991296Y1152713D01*
X990782Y1154632D01*
X989202Y1157368D01*
X986968Y1159602D01*
X984232Y1161182D01*
X981180Y1162000D01*
X978020D01*
X974968Y1161182D01*
X972232Y1159602D01*
X969998Y1157368D01*
X968418Y1154632D01*
X967728Y1152058D01*
X966072D01*
X965382Y1154632D01*
X963802Y1157368D01*
X961568Y1159602D01*
X958832Y1161182D01*
X955780Y1162000D01*
X952620D01*
X949568Y1161182D01*
X946832Y1159602D01*
X944598Y1157368D01*
X943018Y1154632D01*
X942200Y1151580D01*
Y1148420D01*
X943018Y1145368D01*
X944598Y1142632D01*
X946832Y1140398D01*
X949568Y1138818D01*
X952620Y1138000D01*
X955780D01*
X958832Y1138818D01*
X961568Y1140398D01*
X963802Y1142632D01*
X965382Y1145368D01*
X966072Y1147942D01*
X967728D01*
X968418Y1145368D01*
X969998Y1142632D01*
X972232Y1140398D01*
X974968Y1138818D01*
X978020Y1138000D01*
X981180D01*
X984232Y1138818D01*
X986968Y1140398D01*
X989202Y1142632D01*
X990782Y1145368D01*
X991296Y1147287D01*
X992896Y1147077D01*
Y1142013D01*
X968987Y1118104D01*
X952000D01*
X948867Y1117691D01*
X945948Y1116482D01*
X943441Y1114558D01*
X941518Y1112052D01*
X940309Y1109133D01*
X940116Y1107667D01*
X921225Y1088775D01*
X919702Y1086791D01*
X918745Y1084480D01*
X918418Y1082000D01*
Y1063333D01*
X918745Y1060853D01*
X919702Y1058542D01*
X920940Y1056929D01*
Y1042000D01*
X921000Y1041541D01*
Y1041078D01*
X921120Y1040631D01*
X921180Y1040173D01*
X921357Y1039745D01*
X921477Y1039298D01*
X921709Y1038897D01*
X921886Y1038470D01*
X922167Y1038103D01*
X922399Y1037702D01*
X922726Y1037375D01*
X923008Y1037008D01*
X923375Y1036726D01*
X923702Y1036399D01*
X924103Y1036167D01*
X924470Y1035885D01*
X924897Y1035708D01*
X925298Y1035477D01*
X925745Y1035357D01*
X926173Y1035180D01*
X926631Y1035120D01*
X927078Y1035000D01*
X927541D01*
X928000Y1034940D01*
X928459Y1035000D01*
X928922D01*
X929369Y1035120D01*
X929827Y1035180D01*
X930255Y1035357D01*
X930702Y1035477D01*
X931103Y1035708D01*
X931530Y1035885D01*
X931897Y1036167D01*
X932298Y1036399D01*
X932625Y1036726D01*
X932992Y1037008D01*
X933274Y1037375D01*
X933601Y1037702D01*
X933833Y1038103D01*
X934115Y1038470D01*
X934292Y1038897D01*
X934523Y1039298D01*
X934643Y1039745D01*
X934820Y1040173D01*
X934880Y1040631D01*
X935000Y1041078D01*
Y1041541D01*
X935060Y1042000D01*
Y1056706D01*
X935864Y1057439D01*
X936774Y1057244D01*
X937516Y1056961D01*
X938151Y1055428D01*
X939428Y1054151D01*
X940730Y1053612D01*
Y1058000D01*
Y1062388D01*
X939428Y1061849D01*
X938935Y1061356D01*
X937420Y1062103D01*
X937582Y1063333D01*
Y1078031D01*
X953447Y1093896D01*
X974000D01*
X977133Y1094309D01*
X980052Y1095518D01*
X982559Y1097441D01*
X998934Y1113817D01*
X1000412Y1113204D01*
Y1070900D01*
X980465Y1050954D01*
X979471Y1049465D01*
X979121Y1047710D01*
Y1023761D01*
X965469D01*
Y1023638D01*
X959890D01*
Y1025230D01*
X954750D01*
X949610D01*
Y1021360D01*
X950150D01*
Y1019447D01*
X949912Y1018250D01*
Y1015250D01*
X946000D01*
Y1003290D01*
X945460D01*
Y998020D01*
X952500D01*
X959540D01*
Y1003162D01*
X961112D01*
X962564Y1002192D01*
X964319Y1001842D01*
X968695D01*
X970180Y1001547D01*
X983499D01*
X985337Y1001913D01*
X986895Y1002954D01*
X987936Y1004512D01*
X988302Y1006350D01*
X987936Y1008188D01*
X986895Y1009746D01*
X985337Y1010787D01*
X983499Y1011153D01*
X970180D01*
X969505Y1011019D01*
X966208D01*
X964756Y1011989D01*
X963000Y1012338D01*
X961050D01*
X960292Y1013938D01*
X960720Y1014462D01*
X965469D01*
Y1014339D01*
X988210D01*
Y1018817D01*
X988298Y1019261D01*
Y1045809D01*
X1008244Y1065756D01*
X1009239Y1067244D01*
X1009588Y1069000D01*
Y1124471D01*
X1013559Y1128441D01*
X1015482Y1130948D01*
X1016691Y1133867D01*
X1017104Y1137000D01*
Y1144990D01*
X1018704Y1145201D01*
X1018715Y1145160D01*
X1020366Y1142300D01*
X1022700Y1139966D01*
X1025560Y1138315D01*
X1028749Y1137460D01*
X1029130D01*
Y1150000D01*
X1030400D01*
Y1151270D01*
X1042940D01*
Y1151651D01*
X1042085Y1154840D01*
X1040434Y1157700D01*
X1038100Y1160034D01*
X1035914Y1161296D01*
X1036343Y1162896D01*
X1064224D01*
X1072354Y1159529D01*
X1082896Y1148987D01*
Y1115971D01*
X1083137Y1114140D01*
X1081774Y1112540D01*
X1078270D01*
Y1096000D01*
Y1079460D01*
X1086540D01*
Y1097045D01*
X1088140Y1097150D01*
X1088309Y1095867D01*
X1089518Y1092948D01*
X1091441Y1090442D01*
X1094000Y1087883D01*
Y1081197D01*
X1093558Y1080902D01*
X1093116Y1080240D01*
X1092961Y1079460D01*
Y1059039D01*
X1064612D01*
Y1064630D01*
X1058320D01*
Y1058574D01*
X1058637Y1057399D01*
X1049156Y1051869D01*
X1048949Y1051685D01*
X1048720Y1051527D01*
X1048653Y1051423D01*
X1048560Y1051341D01*
X1048439Y1051092D01*
X1048288Y1050859D01*
X1048266Y1050737D01*
X1048212Y1050626D01*
X1048195Y1050349D01*
X1048145Y1050077D01*
X1048168Y1048506D01*
X1048236Y1048191D01*
X1048279Y1047872D01*
X1048318Y1047804D01*
X1048335Y1047728D01*
X1048518Y1047463D01*
X1048680Y1047185D01*
X1048742Y1047138D01*
X1048787Y1047073D01*
X1049057Y1046898D01*
X1049313Y1046703D01*
X1050398Y1045482D01*
X1049904Y1043000D01*
X1050262Y1041199D01*
X1045837Y1036774D01*
X1045174Y1035781D01*
X1044941Y1034611D01*
X1044941Y1034611D01*
Y952017D01*
X1020924Y928000D01*
X1015000D01*
Y920576D01*
X1013478Y919054D01*
X1012000Y919666D01*
Y928000D01*
X1010059D01*
Y967941D01*
X1014504D01*
X1015608Y966837D01*
X1016600Y966174D01*
X1017771Y965941D01*
X1026000D01*
X1026000Y965941D01*
X1027170Y966174D01*
X1028163Y966837D01*
X1037694Y976368D01*
X1038357Y977361D01*
X1038590Y978531D01*
X1038590Y978531D01*
Y1000639D01*
X1038357Y1001810D01*
X1037694Y1002802D01*
X1037694Y1002802D01*
X1034544Y1005952D01*
X1034623Y1006350D01*
X1034258Y1008188D01*
X1033216Y1009746D01*
X1031658Y1010787D01*
X1029820Y1011153D01*
X1016501D01*
X1014663Y1010787D01*
X1013105Y1009746D01*
X1012064Y1008188D01*
X1011698Y1006350D01*
X1012064Y1004512D01*
X1013105Y1002954D01*
X1014663Y1001913D01*
X1016501Y1001547D01*
X1029820D01*
X1030218Y1001626D01*
X1031350Y1000495D01*
X1031278Y999750D01*
X1029820Y998453D01*
X1016501D01*
X1014663Y998087D01*
X1013105Y997046D01*
X1012445Y996059D01*
X1010000D01*
X1008829Y995826D01*
X1007837Y995163D01*
X994837Y982163D01*
X994174Y981171D01*
X993941Y980000D01*
X993941Y980000D01*
Y972598D01*
X993609Y972266D01*
X993000Y970796D01*
Y970326D01*
X990587Y967913D01*
X989924Y966920D01*
X989691Y965750D01*
X989691Y965750D01*
Y927500D01*
X987750D01*
Y919339D01*
X986150Y918676D01*
X984750Y920076D01*
Y927500D01*
X974750D01*
Y925069D01*
X972337D01*
X971296Y925500D01*
X969704D01*
X968234Y924891D01*
X967109Y923766D01*
X966500Y922296D01*
Y920704D01*
X967109Y919234D01*
X968234Y918109D01*
X969704Y917500D01*
X971296D01*
X972337Y917931D01*
X974750D01*
Y915500D01*
X980674D01*
X983837Y912337D01*
X983837Y912337D01*
X984829Y911674D01*
X985378Y911565D01*
X986337Y910924D01*
X987507Y910691D01*
X1012500D01*
X1012500Y910691D01*
X1013671Y910924D01*
X1014663Y911587D01*
X1019076Y916000D01*
X1025000D01*
Y923424D01*
X1050163Y948587D01*
X1050163Y948587D01*
X1050826Y949579D01*
X1051059Y950750D01*
Y1013279D01*
X1052659Y1014023D01*
X1053541Y1013346D01*
X1055244Y1012641D01*
X1057072Y1012400D01*
X1064615D01*
X1067940Y1009075D01*
Y992000D01*
X1068000Y991541D01*
Y974000D01*
X1076015D01*
X1091977Y958038D01*
X1092159Y957899D01*
Y950108D01*
X1092008Y949992D01*
X1090885Y948530D01*
X1090873Y948500D01*
X1086500D01*
Y933500D01*
X1107500D01*
Y933500D01*
X1107500Y933500D01*
X1109100Y933500D01*
X1128500D01*
Y948500D01*
X1124127D01*
X1124115Y948530D01*
X1122992Y949992D01*
X1121530Y951115D01*
X1121341Y951193D01*
Y960975D01*
X1121281Y961434D01*
Y970031D01*
X1119782D01*
X1119120Y971631D01*
X1121650Y974162D01*
X1133383D01*
X1134441Y972562D01*
X1134009Y971520D01*
X1139750D01*
Y968980D01*
X1134009D01*
X1134842Y966970D01*
X1136470Y965341D01*
X1138598Y964460D01*
X1139497D01*
X1139816Y962860D01*
X1138772Y962428D01*
X1137414Y961386D01*
X1136372Y960028D01*
X1135717Y958447D01*
X1135494Y956750D01*
X1135717Y955053D01*
X1136372Y953472D01*
X1137414Y952114D01*
X1138772Y951072D01*
X1140353Y950417D01*
X1142050Y950194D01*
X1157050D01*
X1158747Y950417D01*
X1160328Y951072D01*
X1161686Y952114D01*
X1162728Y953472D01*
X1163383Y955053D01*
X1163606Y956750D01*
X1163383Y958447D01*
X1162728Y960028D01*
X1161686Y961386D01*
X1160328Y962428D01*
X1158747Y963083D01*
X1157050Y963306D01*
X1155797D01*
X1155479Y964906D01*
X1156530Y965341D01*
X1158158Y966970D01*
X1158991Y968980D01*
X1153250D01*
Y971520D01*
X1158991D01*
X1158456Y972812D01*
X1159367Y974412D01*
X1164000D01*
X1165756Y974761D01*
X1167244Y975756D01*
X1170244Y978756D01*
X1171239Y980244D01*
X1171588Y982000D01*
Y1009960D01*
X1171239Y1011716D01*
X1170244Y1013204D01*
X1159241Y1024207D01*
X1158592Y1024641D01*
X1158165Y1026443D01*
X1158236Y1026657D01*
X1158991Y1028480D01*
X1153250D01*
Y1031020D01*
X1158991D01*
X1158158Y1033030D01*
X1156530Y1034659D01*
X1155479Y1035094D01*
X1155797Y1036694D01*
X1157050D01*
X1158747Y1036917D01*
X1160328Y1037572D01*
X1161686Y1038614D01*
X1162728Y1039972D01*
X1163383Y1041553D01*
X1163606Y1043250D01*
X1163383Y1044947D01*
X1162728Y1046528D01*
X1161686Y1047886D01*
X1160328Y1048928D01*
X1158747Y1049583D01*
X1157050Y1049806D01*
X1142050D01*
X1140353Y1049583D01*
X1138772Y1048928D01*
X1137414Y1047886D01*
X1136372Y1046528D01*
X1135717Y1044947D01*
X1135494Y1043250D01*
X1135717Y1041553D01*
X1136372Y1039972D01*
X1137414Y1038614D01*
X1138772Y1037572D01*
X1139816Y1037140D01*
X1139497Y1035540D01*
X1138598D01*
X1136470Y1034659D01*
X1134842Y1033030D01*
X1134009Y1031020D01*
X1139750D01*
Y1028480D01*
X1134009D01*
X1134842Y1026470D01*
X1136193Y1025118D01*
X1135299Y1024224D01*
X1134500Y1022294D01*
Y1020206D01*
X1135299Y1018276D01*
X1136575Y1017000D01*
X1135299Y1015724D01*
X1134500Y1013794D01*
Y1011706D01*
X1135299Y1009776D01*
X1136575Y1008500D01*
X1135299Y1007224D01*
X1134500Y1005294D01*
X1133270Y1004472D01*
Y1000000D01*
Y995528D01*
X1134500Y994706D01*
X1135299Y992776D01*
X1136575Y991500D01*
X1135299Y990224D01*
X1134500Y988294D01*
Y986206D01*
X1135025Y984938D01*
X1134147Y983338D01*
X1119750D01*
X1117994Y982989D01*
X1116506Y981994D01*
X1114018Y979507D01*
X1112540Y980119D01*
Y988730D01*
X1103000D01*
X1093460D01*
Y978615D01*
X1091982Y978003D01*
X1086000Y983985D01*
Y1006000D01*
X1082060D01*
Y1012000D01*
X1081820Y1013827D01*
X1081115Y1015530D01*
X1079993Y1016992D01*
X1072532Y1024453D01*
X1071069Y1025575D01*
X1069367Y1026280D01*
X1067539Y1026521D01*
X1059840D01*
X1058877Y1026920D01*
X1057050Y1027160D01*
X1055223Y1026920D01*
X1053520Y1026215D01*
X1052659Y1025554D01*
X1051059Y1026319D01*
Y1033344D01*
X1054588Y1036873D01*
X1056389Y1036515D01*
X1057711D01*
X1060033Y1036977D01*
X1060078Y1036945D01*
X1060621Y1035344D01*
X1060655Y1035286D01*
X1060668Y1035220D01*
X1060853Y1034943D01*
X1061019Y1034656D01*
X1061073Y1034614D01*
X1061110Y1034558D01*
X1061387Y1034373D01*
X1061650Y1034171D01*
X1061715Y1034154D01*
X1061772Y1034116D01*
X1062098Y1034051D01*
X1062419Y1033965D01*
X1062486Y1033974D01*
X1062552Y1033961D01*
X1069155D01*
X1079558Y1023558D01*
X1080220Y1023116D01*
X1081000Y1022961D01*
X1116736D01*
X1116737Y1022961D01*
X1116737Y1022961D01*
X1117159Y1023045D01*
X1117517Y1023116D01*
X1117517Y1023116D01*
X1117517Y1023116D01*
X1117875Y1023355D01*
X1118178Y1023558D01*
X1118178Y1023558D01*
X1118179Y1023559D01*
X1118399Y1023888D01*
X1118620Y1024220D01*
X1118621Y1024220D01*
X1118621Y1024220D01*
X1118656Y1024307D01*
X1119766Y1025413D01*
X1120737Y1025275D01*
X1122297Y1024965D01*
X1123603D01*
X1126088Y1025459D01*
X1128194Y1026867D01*
X1129602Y1028973D01*
X1130096Y1031458D01*
Y1050483D01*
X1135542D01*
X1135542Y1050483D01*
X1136712Y1050716D01*
X1137705Y1051379D01*
X1142326Y1056000D01*
X1150000D01*
Y1068000D01*
X1138000D01*
Y1060326D01*
X1134275Y1056601D01*
X1129687D01*
X1129602Y1057027D01*
X1128194Y1059134D01*
X1126088Y1060541D01*
X1123603Y1061035D01*
X1122297D01*
X1121428Y1061479D01*
X1115728Y1079230D01*
X1115596Y1079469D01*
X1115495Y1079721D01*
X1115404Y1079814D01*
X1115342Y1079926D01*
X1115128Y1080096D01*
X1114938Y1080290D01*
X1113691Y1081143D01*
X1113496Y1081226D01*
X1113320Y1081344D01*
X1113134Y1081381D01*
X1112960Y1081456D01*
X1112748Y1081458D01*
X1112540Y1081499D01*
X1112000D01*
Y1088017D01*
X1113482Y1089948D01*
X1114691Y1092867D01*
X1115104Y1096000D01*
X1114691Y1099133D01*
X1113482Y1102052D01*
X1112104Y1103848D01*
Y1110100D01*
X1112000Y1110887D01*
Y1112000D01*
X1111853D01*
X1111691Y1113233D01*
X1110482Y1116152D01*
X1108559Y1118659D01*
X1107104Y1120114D01*
Y1154000D01*
X1106691Y1157133D01*
X1105482Y1160052D01*
X1103559Y1162559D01*
X1095471Y1170646D01*
X1096460Y1171920D01*
X1106614Y1165895D01*
X1118177Y1157867D01*
X1129138Y1149034D01*
X1139441Y1139441D01*
X1149034Y1129138D01*
X1157867Y1118177D01*
X1165895Y1106614D01*
X1173078Y1094508D01*
X1179379Y1081920D01*
X1184766Y1068914D01*
X1189212Y1055558D01*
X1190442Y1050736D01*
X1189090Y1049565D01*
X1189047Y1049583D01*
X1187350Y1049806D01*
X1179350D01*
X1177653Y1049583D01*
X1176072Y1048928D01*
X1174714Y1047886D01*
X1173672Y1046528D01*
X1173017Y1044947D01*
X1172794Y1043250D01*
X1173017Y1041553D01*
X1173672Y1039972D01*
X1174714Y1038614D01*
X1176072Y1037572D01*
X1177653Y1036917D01*
X1179350Y1036694D01*
X1187350D01*
X1189047Y1036917D01*
X1190628Y1037572D01*
X1191702Y1038397D01*
X1192791Y1038193D01*
X1193425Y1037861D01*
X1195192Y1028064D01*
X1196697Y1014068D01*
X1197200Y1000000D01*
X1196697Y985932D01*
X1195192Y971936D01*
X1193425Y962139D01*
X1192791Y961807D01*
X1191702Y961603D01*
X1190628Y962428D01*
X1189047Y963083D01*
X1187350Y963306D01*
X1179350D01*
X1177653Y963083D01*
X1176072Y962428D01*
X1174714Y961386D01*
X1173672Y960028D01*
X1173017Y958447D01*
X1172794Y956750D01*
X1173017Y955053D01*
X1173672Y953472D01*
X1174714Y952114D01*
X1176072Y951072D01*
X1177653Y950417D01*
X1179350Y950194D01*
X1187350D01*
X1189047Y950417D01*
X1189090Y950435D01*
X1190442Y949264D01*
X1189212Y944442D01*
X1184766Y931086D01*
X1179379Y918080D01*
X1173078Y905492D01*
X1165895Y893386D01*
X1157867Y881823D01*
X1149034Y870862D01*
X1139441Y860559D01*
X1129138Y850966D01*
X1118177Y842133D01*
X1106614Y834105D01*
X1094508Y826922D01*
X1081920Y820621D01*
X1068914Y815234D01*
X1055558Y810788D01*
X1041918Y807307D01*
X1028064Y804808D01*
X1014068Y803303D01*
X1000000Y802800D01*
X985932Y803303D01*
X971936Y804808D01*
X958082Y807307D01*
X944442Y810788D01*
X931086Y815234D01*
X918080Y820621D01*
X905492Y826922D01*
X893386Y834105D01*
X881823Y842133D01*
X870862Y850966D01*
X860559Y860559D01*
X850966Y870862D01*
X842133Y881823D01*
X834105Y893386D01*
X826922Y905492D01*
X820621Y918080D01*
X815234Y931086D01*
X810788Y944442D01*
X807307Y958082D01*
X804808Y971936D01*
X803303Y985932D01*
X802800Y1000000D01*
X803303Y1014068D01*
X804808Y1028064D01*
X807307Y1041918D01*
X810788Y1055558D01*
X815234Y1068914D01*
X820621Y1081920D01*
X826922Y1094508D01*
X834105Y1106614D01*
X842133Y1118177D01*
X850966Y1129138D01*
X860559Y1139441D01*
X870862Y1149034D01*
X881823Y1157867D01*
X893386Y1165895D01*
X905492Y1173078D01*
X918080Y1179379D01*
X931086Y1184766D01*
X944442Y1189212D01*
X958082Y1192693D01*
X971936Y1195192D01*
X985932Y1196697D01*
X1000000Y1197200D01*
X1014068Y1196697D01*
D02*
G37*
G36*
X1112540Y1079460D02*
X1113787Y1078607D01*
X1119487Y1060856D01*
X1118813Y1060577D01*
X1117370Y1059469D01*
X1116263Y1058026D01*
X1115566Y1056346D01*
X1115329Y1054542D01*
Y1044270D01*
X1122950D01*
Y1041730D01*
X1115329D01*
Y1031458D01*
X1115566Y1029654D01*
X1116263Y1027974D01*
X1117317Y1026600D01*
X1117266Y1026281D01*
X1116736Y1025000D01*
X1081000D01*
X1070000Y1036000D01*
X1062552D01*
X1062009Y1037600D01*
X1062632Y1038078D01*
X1063738Y1039520D01*
X1064434Y1041199D01*
X1064504Y1041730D01*
X1057050D01*
Y1043000D01*
X1055780D01*
Y1049880D01*
X1054588Y1049723D01*
X1052909Y1049028D01*
X1051600Y1048023D01*
X1051031Y1048135D01*
X1050207Y1048536D01*
X1050183Y1050107D01*
X1062000Y1057000D01*
X1095000D01*
Y1079460D01*
X1112540D01*
D02*
G37*
G36*
X1014663Y989213D02*
X1016501Y988847D01*
X1029820D01*
X1030872Y989056D01*
X1032300Y988095D01*
Y986505D01*
X1030872Y985544D01*
X1029820Y985753D01*
X1016501D01*
X1014663Y985387D01*
X1013105Y984346D01*
X1012064Y982788D01*
X1011698Y980950D01*
X1012064Y979112D01*
X1013105Y977554D01*
X1014663Y976513D01*
X1016501Y976147D01*
X1026731D01*
X1027343Y974669D01*
X1024733Y972059D01*
X1019038D01*
X1017934Y973163D01*
X1016941Y973826D01*
X1015771Y974059D01*
X1015770Y974059D01*
X1009598D01*
X1009266Y974391D01*
X1007796Y975000D01*
X1006204D01*
X1004734Y974391D01*
X1003609Y973266D01*
X1003000Y971796D01*
Y970204D01*
X1003609Y968734D01*
X1003941Y968402D01*
Y928000D01*
X1002000D01*
Y916809D01*
X997750D01*
Y927500D01*
X995809D01*
Y964483D01*
X997326Y966000D01*
X997796D01*
X999266Y966609D01*
X1000391Y967734D01*
X1001000Y969204D01*
Y970796D01*
X1000391Y972266D01*
X1000059Y972598D01*
Y978733D01*
X1011267Y989941D01*
X1013573D01*
X1014663Y989213D01*
D02*
G37*
%LPC*%
G36*
X1042940Y1148730D02*
X1031670D01*
Y1137460D01*
X1032051D01*
X1035240Y1138315D01*
X1038100Y1139966D01*
X1040434Y1142300D01*
X1042085Y1145160D01*
X1042940Y1148349D01*
Y1148730D01*
D02*
G37*
G36*
X1151540Y1120290D02*
X1145270D01*
Y1115270D01*
X1151540D01*
Y1120290D01*
D02*
G37*
G36*
X1142730D02*
X1136460D01*
Y1115270D01*
X1142730D01*
Y1120290D01*
D02*
G37*
G36*
X1151540Y1112730D02*
X1145270D01*
Y1107710D01*
X1151540D01*
Y1112730D01*
D02*
G37*
G36*
X1142730D02*
X1136460D01*
Y1107710D01*
X1142730D01*
Y1112730D01*
D02*
G37*
G36*
X1075730Y1112540D02*
X1067460D01*
Y1097270D01*
X1075730D01*
Y1112540D01*
D02*
G37*
G36*
X892125Y1137000D02*
X887875D01*
X883678Y1136335D01*
X879636Y1135022D01*
X875849Y1133092D01*
X872411Y1130594D01*
X869406Y1127589D01*
X866908Y1124151D01*
X864978Y1120364D01*
X863665Y1116322D01*
X863000Y1112125D01*
Y1107875D01*
X863665Y1103678D01*
X864978Y1099636D01*
X866908Y1095849D01*
X869406Y1092411D01*
X872411Y1089406D01*
X875849Y1086908D01*
X879636Y1084978D01*
X883678Y1083665D01*
X887875Y1083000D01*
X892125D01*
X896322Y1083665D01*
X900364Y1084978D01*
X904151Y1086908D01*
X907589Y1089406D01*
X910594Y1092411D01*
X913092Y1095849D01*
X915022Y1099636D01*
X916335Y1103678D01*
X917000Y1107875D01*
Y1112125D01*
X916335Y1116322D01*
X915022Y1120364D01*
X913092Y1124151D01*
X910594Y1127589D01*
X907589Y1130594D01*
X904151Y1133092D01*
X900364Y1135022D01*
X896322Y1136335D01*
X892125Y1137000D01*
D02*
G37*
G36*
X1075730Y1094730D02*
X1067460D01*
Y1079460D01*
X1075730D01*
Y1094730D01*
D02*
G37*
G36*
X964000Y1085500D02*
X952000D01*
Y1072500D01*
X964000D01*
Y1075941D01*
X967000D01*
Y1073500D01*
X979000D01*
Y1083500D01*
X967000D01*
Y1082059D01*
X964000D01*
Y1085500D01*
D02*
G37*
G36*
X1151000Y1104750D02*
X1137000D01*
Y1093250D01*
X1140941D01*
Y1083000D01*
X1138000D01*
Y1071000D01*
X1150000D01*
Y1083000D01*
X1147059D01*
Y1093250D01*
X1151000D01*
Y1104750D01*
D02*
G37*
G36*
X1023620Y1070738D02*
Y1067620D01*
X1026738D01*
X1026199Y1068922D01*
X1024922Y1070199D01*
X1023620Y1070738D01*
D02*
G37*
G36*
X1021080D02*
X1019778Y1070199D01*
X1018501Y1068922D01*
X1017962Y1067620D01*
X1021080D01*
Y1070738D01*
D02*
G37*
G36*
X1064612Y1072801D02*
X1058320D01*
Y1067170D01*
X1064612D01*
Y1072801D01*
D02*
G37*
G36*
X1055780D02*
X1049489D01*
Y1067170D01*
X1055780D01*
Y1072801D01*
D02*
G37*
G36*
X964540Y1069040D02*
X959270D01*
Y1063270D01*
X964540D01*
Y1069040D01*
D02*
G37*
G36*
X956730D02*
X951460D01*
Y1063270D01*
X956730D01*
Y1069040D01*
D02*
G37*
G36*
X1026738Y1065080D02*
X1023620D01*
Y1061962D01*
X1024922Y1062501D01*
X1026199Y1063778D01*
X1026738Y1065080D01*
D02*
G37*
G36*
X1021080D02*
X1017962D01*
X1018501Y1063778D01*
X1019778Y1062501D01*
X1021080Y1061962D01*
Y1065080D01*
D02*
G37*
G36*
X943270Y1062388D02*
Y1059270D01*
X946388D01*
X945849Y1060572D01*
X944572Y1061849D01*
X943270Y1062388D01*
D02*
G37*
G36*
X1055780Y1064630D02*
X1049489D01*
Y1058999D01*
X1055780D01*
Y1064630D01*
D02*
G37*
G36*
X964540Y1060730D02*
X959270D01*
Y1054960D01*
X964540D01*
Y1060730D01*
D02*
G37*
G36*
X956730D02*
X951460D01*
Y1054960D01*
X956730D01*
Y1060730D01*
D02*
G37*
G36*
X946388Y1056730D02*
X943270D01*
Y1053612D01*
X944572Y1054151D01*
X945849Y1055428D01*
X946388Y1056730D01*
D02*
G37*
G36*
X979000Y1069000D02*
X967000D01*
Y1059000D01*
X968859D01*
X969609Y1057516D01*
X969000Y1056046D01*
Y1054454D01*
X969609Y1052984D01*
X970734Y1051859D01*
X972204Y1051250D01*
X973796D01*
X975266Y1051859D01*
X976391Y1052984D01*
X977000Y1054454D01*
Y1056046D01*
X976391Y1057516D01*
X977141Y1059000D01*
X979000D01*
Y1069000D01*
D02*
G37*
G36*
X959890Y1031640D02*
X956020D01*
Y1027770D01*
X959890D01*
Y1031640D01*
D02*
G37*
G36*
X953480D02*
X949610D01*
Y1027770D01*
X953480D01*
Y1031640D01*
D02*
G37*
G36*
X1029820Y1024404D02*
X1024431D01*
Y1020320D01*
X1034921D01*
X1034766Y1021099D01*
X1033606Y1022835D01*
X1031869Y1023996D01*
X1029820Y1024404D01*
D02*
G37*
G36*
X1021891D02*
X1016501D01*
X1014452Y1023996D01*
X1012716Y1022835D01*
X1011555Y1021099D01*
X1011400Y1020320D01*
X1021891D01*
Y1024404D01*
D02*
G37*
G36*
X922390Y1021640D02*
X918520D01*
Y1017770D01*
X922390D01*
Y1021640D01*
D02*
G37*
G36*
X1034921Y1017780D02*
X1024431D01*
Y1013697D01*
X1029820D01*
X1031869Y1014104D01*
X1033606Y1015265D01*
X1034766Y1017001D01*
X1034921Y1017780D01*
D02*
G37*
G36*
X1021891D02*
X1011400D01*
X1011555Y1017001D01*
X1012716Y1015265D01*
X1014452Y1014104D01*
X1016501Y1013697D01*
X1021891D01*
Y1017780D01*
D02*
G37*
G36*
X922390Y1015230D02*
X918520D01*
Y1011360D01*
X922390D01*
Y1015230D01*
D02*
G37*
G36*
X915980Y1021640D02*
X912110D01*
Y1021100D01*
X904650D01*
Y1011900D01*
X905181D01*
Y1006125D01*
X902875D01*
Y1003309D01*
X895541D01*
X895518Y1003304D01*
X895046Y1003500D01*
X893454D01*
X891984Y1002891D01*
X890859Y1001766D01*
X890250Y1000296D01*
Y998704D01*
X890859Y997234D01*
X891984Y996109D01*
X893454Y995500D01*
X895046D01*
X896516Y996109D01*
X897598Y997191D01*
X901744D01*
X902875Y996060D01*
X902875Y993375D01*
X902875Y992775D01*
Y991069D01*
X894837D01*
X893796Y991500D01*
X892204D01*
X890734Y990891D01*
X889609Y989766D01*
X889000Y988296D01*
Y986704D01*
X889609Y985234D01*
X890734Y984109D01*
X892204Y983500D01*
X893796D01*
X894837Y983931D01*
X902875D01*
Y981625D01*
X911827D01*
X912439Y980147D01*
X906884Y974591D01*
X906221Y973599D01*
X906022Y972600D01*
X904400D01*
Y963400D01*
X911860D01*
Y962860D01*
X915730D01*
Y968000D01*
Y974213D01*
X915562Y974618D01*
X920163Y979219D01*
X920163Y979219D01*
X920826Y980211D01*
X921059Y981382D01*
X922614Y981625D01*
X923375D01*
Y984441D01*
X927652D01*
X927984Y984109D01*
X929454Y983500D01*
X931046D01*
X932516Y984109D01*
X933641Y985234D01*
X934250Y986704D01*
Y988296D01*
X933641Y989766D01*
X932516Y990891D01*
X931046Y991500D01*
X929454D01*
X927984Y990891D01*
X927652Y990559D01*
X924506D01*
X923375Y991690D01*
Y992459D01*
X923915Y993835D01*
X923915Y994751D01*
Y996402D01*
X925428Y997151D01*
X926730Y996612D01*
Y1001000D01*
Y1005388D01*
X925428Y1004849D01*
X923915Y1005598D01*
Y1006665D01*
X919270D01*
Y1000250D01*
X916730D01*
Y1006665D01*
X912319D01*
Y1011360D01*
X915980D01*
Y1016500D01*
Y1021640D01*
D02*
G37*
G36*
X929270Y1005388D02*
Y1002270D01*
X932388D01*
X931849Y1003572D01*
X930572Y1004849D01*
X929270Y1005388D01*
D02*
G37*
G36*
X1130730Y1004388D02*
X1129428Y1003849D01*
X1128151Y1002572D01*
X1127612Y1001270D01*
X1130730D01*
Y1004388D01*
D02*
G37*
G36*
X932388Y999730D02*
X929270D01*
Y996612D01*
X930572Y997151D01*
X931849Y998428D01*
X932388Y999730D01*
D02*
G37*
G36*
X1130730Y998730D02*
X1127612D01*
X1128151Y997428D01*
X1129428Y996151D01*
X1130730Y995612D01*
Y998730D01*
D02*
G37*
G36*
X1112540Y1006540D02*
X1104270D01*
Y991270D01*
X1112540D01*
Y1006540D01*
D02*
G37*
G36*
X1101730D02*
X1093460D01*
Y991270D01*
X1101730D01*
Y1006540D01*
D02*
G37*
G36*
X959540Y995480D02*
X953770D01*
Y990210D01*
X959540D01*
Y995480D01*
D02*
G37*
G36*
X951230D02*
X945460D01*
Y990210D01*
X951230D01*
Y995480D01*
D02*
G37*
G36*
X983499Y998453D02*
X970180D01*
X968342Y998087D01*
X966784Y997046D01*
X965742Y995488D01*
X965377Y993650D01*
X965742Y991812D01*
X966784Y990254D01*
X968342Y989213D01*
X970180Y988847D01*
X983499D01*
X985337Y989213D01*
X986895Y990254D01*
X987936Y991812D01*
X988302Y993650D01*
X987936Y995488D01*
X986895Y997046D01*
X985337Y998087D01*
X983499Y998453D01*
D02*
G37*
G36*
X942020Y989388D02*
Y986270D01*
X945138D01*
X944599Y987572D01*
X943322Y988849D01*
X942020Y989388D01*
D02*
G37*
G36*
X939480D02*
X938178Y988849D01*
X936901Y987572D01*
X936362Y986270D01*
X939480D01*
Y989388D01*
D02*
G37*
G36*
X983499Y986303D02*
X978109D01*
Y982220D01*
X988600D01*
X988445Y982999D01*
X987284Y984735D01*
X985548Y985896D01*
X983499Y986303D01*
D02*
G37*
G36*
X975569D02*
X970180D01*
X968131Y985896D01*
X966394Y984735D01*
X965234Y982999D01*
X965079Y982220D01*
X975569D01*
Y986303D01*
D02*
G37*
G36*
X945138Y983730D02*
X942020D01*
Y980612D01*
X943322Y981151D01*
X944599Y982428D01*
X945138Y983730D01*
D02*
G37*
G36*
X939480D02*
X936362D01*
X936901Y982428D01*
X938178Y981151D01*
X939480Y980612D01*
Y983730D01*
D02*
G37*
G36*
X988600Y979680D02*
X978109D01*
Y975596D01*
X983499D01*
X985548Y976004D01*
X987284Y977165D01*
X988445Y978901D01*
X988600Y979680D01*
D02*
G37*
G36*
X975569D02*
X965079D01*
X965234Y978901D01*
X966394Y977165D01*
X968131Y976004D01*
X970180Y975596D01*
X975569D01*
Y979680D01*
D02*
G37*
G36*
X922140Y973140D02*
X918270D01*
Y969270D01*
X922140D01*
Y973140D01*
D02*
G37*
G36*
X960270Y967388D02*
Y964270D01*
X963388D01*
X962849Y965572D01*
X961572Y966849D01*
X960270Y967388D01*
D02*
G37*
G36*
X957730D02*
X956428Y966849D01*
X955151Y965572D01*
X954612Y964270D01*
X957730D01*
Y967388D01*
D02*
G37*
G36*
X922140Y966730D02*
X918270D01*
Y962860D01*
X922140D01*
Y966730D01*
D02*
G37*
G36*
X963388Y961730D02*
X960270D01*
Y958612D01*
X961572Y959151D01*
X962849Y960428D01*
X963388Y961730D01*
D02*
G37*
G36*
X957730D02*
X954612D01*
X955151Y960428D01*
X956428Y959151D01*
X957730Y958612D01*
Y961730D01*
D02*
G37*
G36*
X1129040Y923040D02*
X1119270D01*
Y916270D01*
X1129040D01*
Y923040D01*
D02*
G37*
G36*
X1095730D02*
X1085960D01*
Y916270D01*
X1095730D01*
Y923040D01*
D02*
G37*
G36*
X942270Y913388D02*
Y910270D01*
X945388D01*
X944849Y911572D01*
X943572Y912849D01*
X942270Y913388D01*
D02*
G37*
G36*
X939730D02*
X938428Y912849D01*
X937151Y911572D01*
X936612Y910270D01*
X939730D01*
Y913388D01*
D02*
G37*
G36*
X1129040Y913730D02*
X1119270D01*
Y906960D01*
X1129040D01*
Y913730D01*
D02*
G37*
G36*
X945388Y907730D02*
X942270D01*
Y904612D01*
X943572Y905151D01*
X944849Y906428D01*
X945388Y907730D01*
D02*
G37*
G36*
X939730D02*
X936612D01*
X937151Y906428D01*
X938428Y905151D01*
X939730Y904612D01*
Y907730D01*
D02*
G37*
G36*
X902125Y917000D02*
X897875D01*
X893678Y916335D01*
X889636Y915022D01*
X885849Y913092D01*
X882411Y910594D01*
X879406Y907589D01*
X876908Y904151D01*
X874978Y900364D01*
X873665Y896322D01*
X873000Y892125D01*
Y887875D01*
X873665Y883678D01*
X874978Y879636D01*
X876908Y875849D01*
X879406Y872411D01*
X882411Y869406D01*
X885849Y866908D01*
X889636Y864978D01*
X893678Y863665D01*
X897875Y863000D01*
X902125D01*
X906322Y863665D01*
X910364Y864978D01*
X914151Y866908D01*
X917589Y869406D01*
X920594Y872411D01*
X923092Y875849D01*
X925022Y879636D01*
X926335Y883678D01*
X927000Y887875D01*
Y892125D01*
X926335Y896322D01*
X925022Y900364D01*
X923092Y904151D01*
X920594Y907589D01*
X917589Y910594D01*
X914151Y913092D01*
X910364Y915022D01*
X906322Y916335D01*
X902125Y917000D01*
D02*
G37*
G36*
X1116730Y923040D02*
X1098270D01*
Y915000D01*
X1097000D01*
Y913730D01*
X1085960D01*
Y906960D01*
X1090423D01*
X1090676Y905360D01*
X1089636Y905022D01*
X1085849Y903092D01*
X1082411Y900594D01*
X1079406Y897589D01*
X1076908Y894151D01*
X1074978Y890364D01*
X1073665Y886322D01*
X1073000Y882125D01*
Y877875D01*
X1073665Y873678D01*
X1074978Y869636D01*
X1076908Y865849D01*
X1079406Y862411D01*
X1082411Y859406D01*
X1085849Y856908D01*
X1089636Y854978D01*
X1093678Y853665D01*
X1097875Y853000D01*
X1102125D01*
X1106322Y853665D01*
X1110364Y854978D01*
X1114151Y856908D01*
X1117589Y859406D01*
X1120594Y862411D01*
X1123092Y865849D01*
X1125022Y869636D01*
X1126335Y873678D01*
X1127000Y877875D01*
Y882125D01*
X1126335Y886322D01*
X1125022Y890364D01*
X1123092Y894151D01*
X1120594Y897589D01*
X1117589Y900594D01*
X1114151Y903092D01*
X1110364Y905022D01*
X1109324Y905360D01*
X1109577Y906960D01*
X1116730D01*
Y915000D01*
Y923040D01*
D02*
G37*
G36*
X1058320Y1049880D02*
Y1044270D01*
X1064504D01*
X1064434Y1044801D01*
X1063738Y1046480D01*
X1062632Y1047922D01*
X1061191Y1049028D01*
X1059512Y1049723D01*
X1058320Y1049880D01*
D02*
G37*
%LPD*%
D12*
X895541Y1000250D02*
X908250D01*
X894791Y999500D02*
X895541Y1000250D01*
X894250Y999500D02*
X894791D01*
X909000Y968000D02*
X909047Y968047D01*
Y972428D02*
X918000Y981382D01*
X909047Y968047D02*
Y972428D01*
X918000Y981382D02*
Y987500D01*
X930250D01*
X928000Y997500D02*
X940750Y984750D01*
X1012500Y913750D02*
X1019500Y920750D01*
X979750Y921500D02*
X979750Y921500D01*
X986757Y914500D02*
X987507Y913750D01*
X1012500D01*
X992750Y921500D02*
Y965750D01*
X1019500Y922250D02*
X1048000Y950750D01*
X979750Y920750D02*
X986000Y914500D01*
X1019500Y920750D02*
Y922250D01*
X986000Y914500D02*
X986757D01*
X979750Y920750D02*
X979750D01*
X1017771Y969000D02*
X1026000D01*
X1007000Y971000D02*
X1015771D01*
X1007000Y922000D02*
Y971000D01*
X1015771D02*
X1017771Y969000D01*
X1006500Y921500D02*
X1007000Y922000D01*
X1026000Y969000D02*
X1035531Y978531D01*
X1022511Y993000D02*
X1023161Y993650D01*
X1010000Y993000D02*
X1022511D01*
X997000Y980000D02*
X1010000Y993000D01*
X997000Y970000D02*
Y980000D01*
X992750Y965750D02*
X997000Y970000D01*
X1144000Y1077000D02*
Y1099000D01*
X1022350Y1066350D02*
X1050350D01*
X1056600D02*
X1057050Y1065900D01*
X928000Y997500D02*
Y1001000D01*
X1048000Y1034611D02*
X1056389Y1043000D01*
X1057050D01*
X1048000Y950750D02*
Y1034611D01*
X958000Y1079000D02*
X972500D01*
X973000Y1078500D01*
Y1055250D02*
Y1064000D01*
X1122950Y1049777D02*
X1126715Y1053542D01*
X1122950Y1043000D02*
Y1049777D01*
X1135542Y1053542D02*
X1144000Y1062000D01*
X1126715Y1053542D02*
X1135542D01*
X1035531Y978531D02*
Y1000639D01*
X1029820Y1006350D02*
X1035531Y1000639D01*
X1023161Y1006350D02*
X1029820D01*
X1139885Y1004115D02*
X1144454D01*
X1149313Y999257D02*
X1149405D01*
X1139750Y1004250D02*
X1139885Y1004115D01*
X1144454D02*
X1149313Y999257D01*
X1149405D02*
X1152911Y995750D01*
X1153250D01*
D15*
X918000Y1000250D02*
D03*
Y987500D02*
D03*
X908250Y1000250D02*
D03*
Y987500D02*
D03*
D16*
X917250Y1016500D02*
D03*
X909250D02*
D03*
X917000Y968000D02*
D03*
X909000D02*
D03*
D17*
X1007000Y922000D02*
D03*
X1020000D02*
D03*
X992750Y921500D02*
D03*
X979750D02*
D03*
D18*
X1144000Y1077000D02*
D03*
Y1062000D02*
D03*
D19*
X1057050Y1065900D02*
D03*
D20*
Y1043000D02*
D03*
Y1020100D02*
D03*
D21*
X1122950Y1043000D02*
D03*
D22*
X1144000Y1114000D02*
D03*
Y1099000D02*
D03*
D23*
X1118000Y915000D02*
D03*
Y941000D02*
D03*
X1097000Y915000D02*
D03*
Y941000D02*
D03*
D24*
X976839Y1019050D02*
D03*
D25*
Y1006350D02*
D03*
Y993650D02*
D03*
Y980950D02*
D03*
X1023161D02*
D03*
Y993650D02*
D03*
Y1006350D02*
D03*
Y1019050D02*
D03*
D26*
X954750Y1018500D02*
D03*
Y1026500D02*
D03*
D27*
X958000Y1079000D02*
D03*
Y1062000D02*
D03*
D28*
X973000Y1078500D02*
D03*
Y1064000D02*
D03*
D29*
X1114007Y961250D02*
D03*
X1099493D02*
D03*
D30*
X1103000Y990000D02*
D03*
X1077000D02*
D03*
Y1096000D02*
D03*
X1103000D02*
D03*
D31*
X952500Y996750D02*
D03*
Y1009250D02*
D03*
D37*
X1183350Y956750D02*
D03*
Y1043250D02*
D03*
D38*
X1149550Y956750D02*
D03*
Y1043250D02*
D03*
D39*
X1139750Y970250D02*
D03*
Y978750D02*
D03*
Y987250D02*
D03*
Y995750D02*
D03*
Y1004250D02*
D03*
Y1012750D02*
D03*
Y1021250D02*
D03*
Y1029750D02*
D03*
X1153250D02*
D03*
Y1021250D02*
D03*
Y1012750D02*
D03*
Y1004250D02*
D03*
Y995750D02*
D03*
Y987250D02*
D03*
Y978750D02*
D03*
Y970250D02*
D03*
D44*
X1079535Y1169465D02*
G03*
X1066477Y1175000I-79535J-169465D01*
G01*
X1100000Y1099000D02*
Y1110100D01*
Y1099000D02*
X1103000Y1096000D01*
X1096000Y1114100D02*
X1100000Y1110100D01*
X1079535Y1169465D02*
X1095000Y1154000D01*
Y1115971D02*
X1096000Y1114970D01*
X1095000Y1115971D02*
Y1154000D01*
X1096000Y1114100D02*
Y1114970D01*
X1005000Y1137000D02*
Y1163284D01*
X974000Y1106000D02*
X1005000Y1137000D01*
X952000Y1106000D02*
X974000D01*
X1016716Y1175000D02*
X1066477D01*
X1005000Y1163284D02*
X1016716Y1175000D01*
D45*
X893000Y987500D02*
X908250D01*
X908250Y987500D01*
X940750Y973250D02*
Y984750D01*
X908750Y1016000D02*
X909250Y1016500D01*
X908250Y1000250D02*
X908750Y1000750D01*
Y1016000D01*
X940750Y973250D02*
X951000Y963000D01*
X939375Y983375D02*
X940750Y984750D01*
X924000Y968000D02*
X939375Y983375D01*
X919490Y998760D02*
X920875Y1000146D01*
X917250Y1016500D02*
X917625Y1016125D01*
Y1000625D02*
X918000Y1000250D01*
X917625Y1000625D02*
Y1016125D01*
X917000Y968000D02*
X924000D01*
X920875Y1000146D02*
X926875D01*
X927729Y1001000D01*
X928000D01*
X970500Y921500D02*
X979750D01*
X959000Y963000D02*
X959000Y963000D01*
X951000Y963000D02*
X959000D01*
X974000Y982068D02*
X975118Y980950D01*
X976839D01*
D46*
X940750Y984750D02*
Y993536D01*
Y984750D02*
Y985000D01*
X985229Y908250D02*
X1074250D01*
X1081000Y915000D01*
X941000Y909000D02*
X984479D01*
X985229Y908250D01*
X1097000Y915000D02*
X1118000D01*
X1081000D02*
X1097000D01*
X1118000D02*
X1121000Y918000D01*
X1131000D01*
X1133000Y920000D01*
Y963094D01*
X1144000Y1114000D02*
X1145250D01*
X1167000Y1092250D01*
X1050350Y1066350D02*
X1056600D01*
X942000Y1058000D02*
X946000Y1062000D01*
X958000D01*
X958050Y980950D02*
X975118D01*
X1005000Y1069000D02*
Y1146000D01*
X983710Y1047710D02*
X1005000Y1069000D01*
X1016501Y1019050D02*
X1023161D01*
X976839Y980950D02*
X983499D01*
X1000000Y997451D01*
Y1002549D01*
X1016501Y1019050D01*
X983710Y1019261D02*
Y1047710D01*
X983499Y1019050D02*
X983710Y1019261D01*
X976839Y1019050D02*
X983499D01*
X1103000Y990000D02*
X1122000D01*
X1132000Y1000000D01*
X1023161Y1039161D02*
X1050350Y1066350D01*
X1023161Y1019050D02*
Y1039161D01*
X940500Y1023571D02*
X943429Y1026500D01*
X954750D01*
X940500Y993785D02*
Y1023571D01*
Y993785D02*
X940750Y993536D01*
X952500Y986500D02*
Y996750D01*
X952215Y996464D02*
X952500Y996750D01*
X940750Y993536D02*
X943679Y996464D01*
X952215D01*
X952500Y986500D02*
X958050Y980950D01*
X953000Y1009250D02*
X954500Y1010750D01*
Y1018250D01*
X954750Y1018500D01*
Y1026500D02*
Y1033750D01*
X958000Y1037000D01*
Y1062000D01*
X1139750Y969844D02*
Y970250D01*
X1133000Y963094D02*
X1139750Y969844D01*
X1164071Y1029750D02*
X1166250D01*
X1178000Y1018000D01*
Y983101D02*
Y1018000D01*
X1153250Y970250D02*
X1165150D01*
X1178000Y983101D01*
X1132000Y1000000D02*
Y1024460D01*
X1137003Y1029463D01*
X1139463D01*
X1139750Y1029750D01*
X1164071D02*
X1167000Y1032679D01*
Y1092250D01*
X1153250Y1029750D02*
X1164071D01*
X1057050Y1090050D02*
X1063000Y1096000D01*
X1077000D01*
X1057050Y1065900D02*
Y1090050D01*
X1078000Y1097000D02*
Y1113000D01*
X1077000Y1096000D02*
X1078000Y1097000D01*
X1052000Y1139000D02*
X1078000Y1113000D01*
X1044149Y1139000D02*
X1052000D01*
X1030400Y1150000D02*
X1033149D01*
X1044149Y1139000D01*
X1114007Y973007D02*
X1119750Y978750D01*
X1114007Y961250D02*
Y973007D01*
X1153250Y978750D02*
X1153500Y979000D01*
X1164000D01*
X1167000Y982000D01*
Y1009960D01*
X1153537Y1020963D02*
X1155997D01*
X1167000Y1009960D01*
X1153250Y1021250D02*
X1153537Y1020963D01*
X1139750Y1021250D02*
X1153250D01*
X1139750Y978750D02*
X1153250D01*
X1119750D02*
X1139750D01*
Y1029750D02*
X1153250D01*
X1139750Y970250D02*
X1153250D01*
X954750Y1018500D02*
X955300Y1019050D01*
X976839D01*
X976759Y1006431D02*
X976839Y1006350D01*
X964319Y1006431D02*
X976759D01*
X963000Y1007750D02*
X964319Y1006431D01*
X954000Y1007750D02*
X963000D01*
X952500Y1009250D02*
X954000Y1007750D01*
D47*
X928000Y1082000D02*
X952000Y1106000D01*
X928000Y1063333D02*
Y1082000D01*
D48*
Y1042000D02*
Y1063333D01*
X1096969Y963031D02*
X1099219D01*
X1099493Y962757D01*
X1077000Y983000D02*
Y990000D01*
Y983000D02*
X1096969Y963031D01*
X1099493Y961250D02*
Y962757D01*
X1057050Y1019482D02*
X1057072Y1019461D01*
X1057050Y1019482D02*
Y1020100D01*
X1057072Y1019461D02*
X1067539D01*
X1075000Y1012000D01*
Y992000D02*
Y1012000D01*
Y992000D02*
X1077000Y990000D01*
X1099219Y945500D02*
Y960975D01*
X1098719Y945000D02*
X1099219Y945500D01*
X1097000Y945000D02*
X1098719D01*
X1099219Y960975D02*
X1099493Y961250D01*
X1115000Y945000D02*
X1118000D01*
X1114007Y961250D02*
X1114281Y960975D01*
Y945719D02*
Y960975D01*
Y945719D02*
X1115000Y945000D01*
D49*
X1030400Y1150000D02*
D03*
X1005000D02*
D03*
X954200Y1150000D02*
D03*
X979600Y1150000D02*
D03*
D50*
X894250Y999500D02*
D03*
X893000Y987500D02*
D03*
X930250Y987500D02*
D03*
X940750Y985000D02*
D03*
X970500Y921500D02*
D03*
X959000Y963000D02*
D03*
X1007000Y971000D02*
D03*
X997000Y970000D02*
D03*
X1022350Y1066350D02*
D03*
X941000Y909000D02*
D03*
X942000Y1058000D02*
D03*
X928000Y1001000D02*
D03*
X973000Y1055250D02*
D03*
X1132000Y1000000D02*
D03*
D51*
X928000Y1042000D02*
D03*
D52*
X900000Y890000D02*
D03*
X890000Y1110000D02*
D03*
X1100000Y880000D02*
D03*
M02*
